<?xml version="1.0" encoding="UTF-8"?>
<svg id="Capa_1" data-name="Capa 1" xmlns="http://www.w3.org/2000/svg" version="1.1" viewBox="0 0 252.6 197.27">
  <defs>
    <style>
      .cls-1 {
        fill: #c8ff00;
        stroke-width: 0px;
      }
    </style>
  </defs>
  <g>
    <path class="cls-1" d="M64.4,167.03c.17-.49.07-1.04-.27-1.43-1.66-1.89-2.51-4.39-2.09-7.13.55-4.29,3.97-7.17,8.57-7.17,4.23,0,7.05,2.23,7.73,5.42.13.63.64,1.1,1.28,1.18l20.94,2.49c.84.1,1.43.88,1.3,1.71l-.16,1.02c-.04.27-.16.52-.33.73-4.75,5.63-7.53,10.44-8.07,14.64-.55,3.66,1.09,5.61,4.91,5.61h0c.91,0,1.6.8,1.48,1.7l-1.3,9.25c-.1.74-.73,1.28-1.48,1.28h-1.59c-11.69,0-16.91-6.55-15.2-17.38.3-2.18.93-4.31,1.93-6.43.43-.91-.14-1.98-1.13-2.12l-4.01-.55c-.71-.1-1.39.33-1.62,1.01l-8.08,24.45c-.2.61-.77,1.02-1.42,1.02h-9.23c-1.02,0-1.74-1-1.41-1.97l9.25-27.34Z"/>
    <path class="cls-1" d="M101.5,174.91c1.56-11.61,11.38-19.25,22.83-19.25,13.33,0,21.9,9.66,20.18,22.37-1.64,11.61-11.46,19.25-22.91,19.25-13.33,0-21.9-9.66-20.1-22.37ZM131.5,177.17c.7-5.3-2.65-9.27-8.03-9.27-4.52,0-8.34,3.35-9.04,7.87-.7,5.3,2.73,9.27,8.03,9.27,4.6,0,8.42-3.35,9.04-7.87Z"/>
    <path class="cls-1" d="M146.27,174.91c1.64-11.61,10.36-19.25,20.42-19.25,4.04,0,7.36,1.06,9.96,2.91.91.65,2.19.12,2.34-1l2.25-16.06c.1-.74.73-1.28,1.48-1.28h9.61c.91,0,1.6.8,1.48,1.7l-5.45,39.22c-.36,1.9,1.23,2.58,2.34,2.83.57.12.93.68.85,1.26l-1.44,9.84c-.11.73-.74,1.27-1.48,1.27h-2.14c-4.49,0-7.63-1.12-9.49-3.35-.53-.64-1.5-.66-2.12-.1-3.07,2.77-6.82,4.39-11,4.39-11.92,0-19.4-9.66-17.61-22.37ZM176.19,177.17l.08-.08c.7-5.38-2.65-9.2-8.03-9.2-4.52,0-8.42,3.35-8.96,7.87-.78,5.38,2.65,9.27,8.03,9.27,4.44,0,8.34-3.43,8.88-7.87Z"/>
    <path class="cls-1" d="M193.22,174.91c1.64-11.69,11.38-19.25,22.83-19.25,13.33,0,21.98,8.88,20.1,21.12-.1.78-.24,1.63-.44,2.42-.16.65-.77,1.09-1.44,1.09h-26.01c-1.06,0-1.83,1.1-1.38,2.06,1.28,2.73,3.9,4.33,7.44,4.33,2.82,0,5.07-1.15,6.57-2.64.29-.29.67-.47,1.09-.47h10.36c1.13,0,1.84,1.21,1.31,2.21-3.67,6.95-11.01,11.51-20.34,11.51-13.33,0-21.9-9.66-20.1-22.37ZM209.57,172.49h11.74c1.11,0,1.81-1.16,1.34-2.16-1.2-2.55-3.69-4.08-6.98-4.08-2.94,0-5.51,1.43-7.28,3.83-.74,1-.05,2.41,1.18,2.41Z"/>
    <path class="cls-1" d="M235.27,187.84c.7-4.44,4.52-7.71,8.96-7.71,5.46,0,9.04,4.05,8.26,9.43-.62,4.29-4.52,7.64-8.96,7.64-5.38,0-9.04-4.05-8.26-9.35Z"/>
  </g>
  <g>
    <path class="cls-1" d="M164.54,72.25c-7.04,30.03-34.94,51.41-67.12,51.41h-32.66c-4.29,0-7.94,3.14-8.58,7.38l-8.2,58.84c-.63,4.24-4.28,7.39-8.57,7.39H8.68c-5.29,0-9.34-4.69-8.59-9.91L25.43,7.43c.61-4.27,4.27-7.43,8.58-7.43h38.08l-2.32,10.51-15.36,4.2c-3.51.97-6.25,3.69-7.25,7.19-.47,1.7-.66,3.45-.55,5.18.06.9.2,1.8.42,2.68l-4.65.29c-1.15.07-2.15.97-2.19,2.12-.05,1.33,1.05,2.38,2.34,2.29l6.28-.4c.21.35.43.69.67,1.02,1.04,1.43,2.24,3.09,3.57,4.92l-5.47.35c-1.15.07-2.15.96-2.19,2.12-.05,1.32,1.05,2.37,2.34,2.29l8.42-.54c6.15,8.36,14.23,19.09,22.49,29.4l-5.83.37c-1.16.08-2.15.97-2.19,2.13-.05,1.32,1.05,2.37,2.34,2.29l9.08-.58c1.48,1.82,2.96,3.62,4.44,5.37l-6.08.38c-1.15.08-2.15.97-2.19,2.13-.05,1.32,1.05,2.37,2.34,2.29l9.5-.61c1.6,1.86,3.19,3.65,4.73,5.35l-6.79.43c-1.15.08-2.15.97-2.19,2.12-.05,1.33,1.05,2.38,2.34,2.29l10.53-.66c5.53,5.76,10.33,9.95,13.66,11.36,12.24,5.18,11.47-5.75,10.38-11.35-.33-1.66-.88-3.27-1.63-4.78-1.94-3.93-6.62-13.95-9.59-25.06l-10.44-1.1,9.26-3.83c-1.84-8.73-2.26-17.67.73-24.55,8.44-19.4-11.69-8.89-12.33-8.57L108.05.07c14.99.61,27.94,5.36,37.79,13.17-9.99,5.26-16.8,15.75-16.8,27.83,0,17.36,14.08,31.44,31.45,31.44,1.37,0,2.73-.09,4.05-.26Z"/>
    <path class="cls-1" d="M191.93,41.07c0,15.99-11.94,29.19-27.39,31.18.41-1.76.75-3.55,1.02-5.37,3.27-22.44-4.58-41.64-19.72-53.64,4.37-2.31,9.36-3.62,14.65-3.62,17.36,0,31.44,14.08,31.44,31.45Z"/>
  </g>
</svg>